<svg id="Capa_1" enable-background="new 0 0 512 512" height="512" viewBox="0 0 512 512" width="512" xmlns="http://www.w3.org/2000/svg"><g><path d="m463.112 468.036c2.832-21.484 8.041-44.088 13.927-49.98l-109.215-41.018 3.329 120.371h58.422c16.963 0 31.32-12.555 33.537-29.373z" fill="#a09cdc"/><path d="m415.499 352.277 78.356 28.519c14.306 5.208 21.683 21.026 16.475 35.333-5.196 14.278-20.998 21.693-35.332 16.475l-67.547-24.585c-17.623-22.795-9.437-47.353 8.048-55.742z" fill="#f6ee86"/><path d="" fill="#c0ade2"/><path d="m310.631 46.773c23.386-1.07 44.121 10.594 55.883 28.642 3.09 4.742 8.781 7.238 14.316 6.055 23.512-5.026 47.202 9.306 53.892 32.154 1.873 6.395 7.694 10.819 14.358 10.819h20.837c20.187 0 36.551 16.365 36.551 36.552 0 6.621-5.368 11.989-11.989 11.989h-180.884c-36.465 0-65.71-30.912-62.96-67.961 2.346-31.595 28.348-56.802 59.996-58.25z" fill="#cde9fa"/><path d="m200.924 117.954c-23.386-1.07-44.121 10.594-55.883 28.642-3.09 4.742-8.781 7.238-14.316 6.055-23.512-5.026-47.202 9.306-53.892 32.154-1.872 6.395-7.694 10.819-14.358 10.819h-20.835c-20.187 0-36.552 16.365-36.552 36.551 0 6.621 5.368 11.989 11.989 11.989h180.883c36.465 0 65.71-30.912 62.96-67.961-2.346-31.594-28.348-56.801-59.996-58.249z" fill="#cde9fa"/><path d="m355.647 71.005-99.647-30.659-99.647 30.659 24.377 161.491h150.54z" fill="#c0ade2"/><path d="m171.433 170.91 9.297 61.587h150.54l9.297-61.587-52.923-19.263c-10.159-3.698-20.805-5.573-31.641-5.573-10.835 0-21.481 1.875-31.643 5.573z" fill="#a09cdc"/><ellipse cx="256" cy="149.04" fill="#cde9fa" rx="37.136" ry="37.136" transform="matrix(.345 -.939 .939 .345 27.878 338.009)"/><path d="m48.888 468.036c-2.832-21.484-8.041-44.088-13.927-49.98l109.215-41.018-3.329 120.371h-58.422c-16.963 0-31.32-12.555-33.537-29.373z" fill="#a09cdc"/><path d="m96.501 352.277-78.356 28.519c-14.306 5.208-21.682 21.026-16.475 35.333 5.196 14.278 20.998 21.693 35.332 16.475l67.547-24.585c17.623-22.795 9.437-47.353-8.048-55.742z" fill="#f6ee86"/><path d="m415.499 352.277-36.182-13.169c-14.306-5.207-30.126 2.169-35.332 16.475-5.208 14.307 2.169 30.125 16.476 35.333l46.99 17.103c1.99-18.098 4.625-37.05 8.048-55.742z" fill="#f2d98d"/><path d="m151.54 390.916c14.307-5.208 21.684-21.026 16.476-35.333-5.206-14.307-21.026-21.683-35.332-16.475l-36.182 13.169c3.423 18.692 6.057 37.644 8.048 55.742z" fill="#f2d98d"/><path d="m371.152 497.409c0-49.576 7.23-152.626 33.05-225.039l-148.202-55.681-148.203 55.68c25.82 72.413 33.05 175.464 33.05 225.039h230.305z" fill="#c0ade2"/><path d="m292.854 153.543-5.21-1.896c-10.159-3.698-20.805-5.573-31.641-5.573-10.835 0-21.481 1.875-31.643 5.573l-5.213 1.897c2.224 18.384 17.87 32.632 36.854 32.632 18.983 0 34.629-14.249 36.853-32.633z" fill="#a2ddfd"/><path d="m436.585 238.746-159.514-58.058c-13.588-4.947-28.555-4.945-42.142 0l-55.524 20.209c-20.597 19.461-9.719 55.103 21.706 50.771l52.675-19.172c1.426-.519 2.998-.519 4.427 0l159.515 58.058c14.351 5.223 30.143-2.217 35.332-16.475 5.208-14.307-2.168-30.126-16.475-35.333z" fill="#f6ee86"/><path d="m179.405 200.897-103.991 37.849c-14.307 5.206-21.683 21.026-16.476 35.333 5.206 14.306 21.026 21.683 35.332 16.475l106.841-38.886c-17.454-4.52-27.568-35.716-21.706-50.771z" fill="#f2d98d"/><path d="" fill="#c0ade2"/><path d="" fill="#c0ade2"/><path d="m243.725 406.867c-8.692 4.255-18.822 6.665-31.387 6.502-11.789-.152-20.753 10.476-18.348 22.017 3.147 15.102 6.723 36.382 8.729 62.022h106.563c2.005-25.64 5.582-46.919 8.729-62.022 2.405-11.542-6.56-22.17-18.348-22.017-12.566.162-22.696-2.247-31.387-6.502-7.768-3.802-16.784-3.802-24.551 0z" fill="#565e75"/><g><g><ellipse cx="172.754" cy="357.828" fill="#fff" rx="30.716" ry="24.461"/><ellipse cx="339.246" cy="357.828" fill="#fff" rx="30.716" ry="24.461"/><g fill="#565e75"><path d="m291.904 342.237c0-15.528-16.075-16.987-35.904-16.987-19.83 0-35.905 1.459-35.905 16.987 0 15.527 16.075 28.115 35.905 28.115s35.904-12.587 35.904-28.115z"/><path d="m202.761 313.745c-.433 0-.871-.037-1.311-.115l-21.762-3.837c-4.079-.719-6.803-4.608-6.084-8.688.719-4.078 4.613-6.808 8.688-6.083l21.762 3.837c4.079.719 6.803 4.608 6.084 8.689-.641 3.637-3.807 6.197-7.377 6.197z"/><path d="m309.239 313.745c-3.571 0-6.736-2.56-7.378-6.198-.719-4.08 2.005-7.97 6.084-8.689l21.762-3.837c4.081-.724 7.969 2.004 8.689 6.083.719 4.08-2.005 7.97-6.084 8.688l-21.762 3.837c-.44.079-.879.116-1.311.116z"/></g></g><g fill="#565e75"><path d="m190.655 341.685c-4.142 0-7.5-3.357-7.5-7.5v-12.362c0-4.143 3.358-7.5 7.5-7.5s7.5 3.357 7.5 7.5v12.362c0 4.142-3.358 7.5-7.5 7.5z"/><path d="m321.345 341.685c-4.142 0-7.5-3.357-7.5-7.5v-12.362c0-4.143 3.358-7.5 7.5-7.5s7.5 3.357 7.5 7.5v12.362c0 4.142-3.358 7.5-7.5 7.5z"/></g></g><path d="m367.68 44.363c-52.865-8.38-66.669-14.904-102.793-28.19-5.736-2.109-12.037-2.109-17.774 0-12.885 4.739-22.973 8.647-33.158 12.11-27.487 18.428-9.983 51.339 17.691 48.359 7.76-2.662 15.575-5.564 24.354-8.828 35.17 13.077 54.433 19.626 103.616 27.422 13.984 2.225 27.233-7.301 29.469-21.404 2.227-14.049-7.357-27.243-21.405-29.469z" fill="#f6ee86"/><path d="m213.961 28.278c-17.784 6.046-35.861 10.73-69.641 16.084-14.048 2.226-23.632 15.42-21.405 29.469 2.227 14.048 15.424 23.632 29.469 21.404 37.856-6.001 58.36-11.424 79.262-18.594-12.75-4.356-26.228-24.06-17.685-48.363z" fill="#f2d98d"/></g></svg>