<svg id="Capa_1" enable-background="new 0 0 497 497" height="512" viewBox="0 0 497 497" width="512" xmlns="http://www.w3.org/2000/svg"><g><g><path d="m482 0h-413.497c-8.284 0-15 6.716-15 15s6.716 15 15 15h413.497c8.284 0 15-6.716 15-15s-6.716-15-15-15z" fill="#d4d4ff"/><path d="m284.841 0h-18.235c-15.261 0-26.095 14.87-21.417 29.396l10.535 32.604 20 10.112 20-10.112 10.534-32.604c4.678-14.526-6.156-29.396-21.417-29.396z" fill="#8288cb"/></g><path d="m315.724 152h-80c-24.853 0-45-20.147-45-45s20.147-45 45-45h80c24.853 0 45 20.147 45 45s-20.148 45-45 45z" fill="#0caf7b"/><g fill="#676fb2"><path d="m106.463 407v30l15 10 15-10v-30l-15-10z"/><path d="m253.826 397-15 10v30l15 10 15-10v-30z"/></g><g><path d="m468.149 172.12c2.635-6.215 23.271-54.891 26.035-61.411 9.794-23.102-7.163-48.709-32.256-48.709-10.651 0-20.723 4.845-27.372 13.166l-25.433 31.834h-230.266c-34.404 0-66.764 10.981-93.272 30v221.639h249.809c.929-2.861-1.077 4.476 25.189-94.015l55.109-19.162 18.864 23.611c6.648 8.321 16.721 13.166 27.372 13.166 25.093 0 42.05-25.607 32.256-48.709-14.4-33.964-23.313-54.99-26.035-61.41z" fill="#30cd9c"/><path d="m184.822 306.243-102.789-16.846-79.292 16.99c-2.712 10.17-3.342 20.3-2.199 30l105.921 70.613h162.363c30.457 0 57.249-19.666 66.567-48.361-56.024-6.476-107.016-24.498-150.571-52.396z" fill="#0caf7b"/></g><g><g><path d="m184.822 306.243c25.925-1.854 46.386-23.458 46.386-49.856v-69.387c0-27.614-22.386-50-50-50h-95.623c-8.889 6.377-17.114 13.664-24.543 21.739v127.218z" fill="#b9f0ff"/><path d="m61.042 158.739c-17.102 18.589-29.958 41.378-36.801 67.035l-21.5 80.613h178.466c1.217 0 2.419-.059 3.615-.144-54.394-34.839-97.195-85.09-123.78-147.504z" fill="#7ce3ff"/></g><path d="m.543 336.387c4.563 38.743 37.464 70.613 79.507 70.613h26.414v-40.613c0-16.569-13.432-30-30-30z" fill="#7ce3ff"/></g><g><g fill="#d4d4ff"><path d="m378.485 157.712c-1.329-.385-2.734-.592-4.187-.592-8.284 0-15 6.716-15 15s6.716 15 15 15c1.453 0 2.858-.207 4.187-.592l49.664-14.408z"/><path d="m477.813 157.712c1.329-.385 2.734-.592 4.187-.592 8.284 0 15 6.716 15 15s-6.716 15-15 15c-1.453 0-2.858-.207-4.187-.592l-49.664-14.408z"/></g><circle cx="428.149" cy="172.12" fill="#0caf7b" r="22.5"/></g><g><path d="m197.917 497h70.91c46.226 0 89.382-19.983 119.308-53.428 13.945-15.585 8.205-40.273-11.237-47.979-11.748-4.656-25.086-1.39-33.521 8.019-18.786 20.955-45.896 33.388-74.551 33.388h-70.91l-38.122 31.036z" fill="#9ea2e3"/><path d="m197.917 437h-117.867c-13.569 0-26.833-2.456-39.425-7.299-9.158-3.522-19.467-2.3-27.579 3.271-8.169 5.611-13.046 14.871-13.046 24.773 0 12.345 7.777 23.617 19.353 28.049 19.419 7.436 39.84 11.206 60.697 11.206h117.867c-16.622-16.546-16.622-43.454 0-60z" fill="#8288cb"/></g><ellipse cx="123.434" cy="271.716" fill="#ff8e9e" rx="28.92" ry="23.03"/><path d="m106.58 225.39c-11.726 0-21.265 9.54-21.265 21.265 0 4.142 3.357 7.5 7.5 7.5s7.5-3.358 7.5-7.5c0-3.455 2.811-6.265 6.265-6.265s6.265 2.811 6.265 6.265c0 4.142 3.357 7.5 7.5 7.5s7.5-3.358 7.5-7.5c0-11.725-9.539-21.265-21.265-21.265z" fill="#313d40"/></g></svg>