<svg height="504pt" viewBox="-4 0 504 504.13763" width="504pt" xmlns="http://www.w3.org/2000/svg"><path d="m139.878906 14.910156v23.878906c.296875 4.082032 3.632813 7.277344 7.722656 7.394532l70.378907 6.699218v-52.066406l-70.378907 6.699219c-4.089843.117187-7.425781 3.3125-7.722656 7.394531zm0 0" fill="#cc4b4c"/><path d="m79.132812 224.152344c-31.992187 28.003906-50.84375 68.089844-52.007812 110.589844-.019531 1.1875.433594 2.332031 1.261719 3.179687s1.964843 1.328125 3.148437 1.335937h47.597656zm0 0" fill="#e4c05c"/><g fill="#805333"><path d="m217.980469 423.257812c-4.792969 0-8.675781-3.882812-8.675781-8.675781v-82.269531c0-4.792969 3.882812-8.675781 8.675781-8.675781s8.679687 3.882812 8.679687 8.675781v82.269531c0 4.792969-3.886718 8.675781-8.679687 8.675781zm0 0"/><path d="m217.980469 96.273438c-4.792969 0-8.675781-3.886719-8.675781-8.679688v-78.101562c0-4.792969 3.882812-8.675782 8.675781-8.675782s8.679687 3.882813 8.679687 8.675782v78.101562c0 4.792969-3.886718 8.679688-8.679687 8.679688zm0 0"/><path d="m217.980469 209.085938c-4.792969 0-8.675781-3.882813-8.675781-8.675782v-34.714844c0-4.792968 3.882812-8.675781 8.675781-8.675781s8.679687 3.882813 8.679687 8.675781v34.714844c0 4.792969-3.886718 8.675782-8.679687 8.675782zm0 0"/><path d="m386.628906 382.644531c-4.792968 0-8.679687-3.882812-8.679687-8.675781v-34.710938c0-4.792968 3.886719-8.679687 8.679687-8.679687 4.792969 0 8.679688 3.886719 8.679688 8.679687v34.710938c0 4.792969-3.886719 8.675781-8.679688 8.675781zm0 0"/><path d="m386.628906 217.765625c-4.792968 0-8.679687-3.886719-8.679687-8.679687v-26.03125c0-4.792969 3.886719-8.679688 8.679687-8.679688 4.792969 0 8.679688 3.886719 8.679688 8.679688v26.03125c0 4.792968-3.886719 8.679687-8.679688 8.679687zm0 0"/><path d="m79.132812 382.644531c-4.792968 0-8.675781-3.882812-8.675781-8.675781v-164.882812c0-4.792969 3.882813-8.675782 8.675781-8.675782 4.792969 0 8.679688 3.882813 8.679688 8.675782v164.882812c0 4.792969-3.886719 8.675781-8.679688 8.675781zm0 0"/></g><path d="m322.289062 326.324219c-2.714843 8.6875-6.394531 17.046875-10.96875 24.917969-1.15625 1.964843-3.625 2.71875-5.683593 1.734374-14.464844-6.941406-72.894531-30.851562-170.042969-18.675781-1.808594.171875-3.527344-.796875-4.316406-2.429687-.789063-1.632813-.480469-3.585938.773437-4.894532 47.53125-50.332031 18.539063-101.460937 5.292969-119.652343-.984375-1.3125-1.144531-3.074219-.40625-4.542969.734375-1.46875 2.234375-2.398438 3.878906-2.398438h156.664063c1.464843-.015624 2.832031.722657 3.628906 1.953126 3.28125 5.199218 6.269531 10.582031 8.945313 16.121093 11.195312 22.824219 25.773437 64.390625 12.234374 107.867188" fill="#f9eab0"/><path d="m103.519531 481.75h-.085937c-33.5-23.21875-50.09375-64.054688-42.28125-104.058594.355468-2.136718 2.191406-3.707031 4.355468-3.722656h97.714844c2.65625-.003906 5.273438.617188 7.636719 1.820312 13.507813 6.074219 24.53125 16.582032 31.242187 29.785157 2.441407 6.90625 8.890626 11.59375 16.21875 11.785156h88.695313c5.839844.007813 11.277344-2.972656 14.40625-7.898437l17.878906-27.507813c3.175781-4.976563 8.671875-7.988281 14.578125-7.984375h81.050782s1.648437 66.992188-54.0625 105.695312l-8.347657 17.964844h-249.996093zm0 0" fill="#cb8252"/><path d="m358.902344 333.46875c13.832031-38.28125 13.976562-80.167969.410156-118.542969-.492188-1.328125-.300781-2.816406.507812-3.980469.8125-1.164062 2.140626-1.859374 3.558594-1.859374h47.355469c1.328125-.011719 2.582031.59375 3.394531 1.640624 26.847656 35.738282 39.800782 80.007813 36.449219 124.582032-.25 2.230468-2.125 3.921875-4.367187 3.949218h-83.308594c-1.390625-.03125-2.6875-.726562-3.480469-1.871093-.792969-1.148438-.984375-2.605469-.519531-3.917969zm0 0" fill="#f5efca"/><path d="m174.15625 87.59375h87.050781c.894531 0 1.765625.277344 2.5.792969 6.152344 4.335937 33.660157 26.363281 27.367188 73.519531-.3125 2.160156-2.152344 3.769531-4.335938 3.789062h-133.617187c-1.726563-.011718-3.28125-1.050781-3.957032-2.640624-.675781-1.589844-.347656-3.429688.84375-4.683594 16.636719-17.570313 24.011719-41.964844 19.898438-65.8125-.179688-1.238282.183594-2.496094.996094-3.449219.816406-.949219 2.003906-1.503906 3.253906-1.515625zm0 0" fill="#e4c05c"/><path d="m165.914062 434.714844c0 9.585937-7.769531 17.355468-17.355468 17.355468-9.585938 0-17.355469-7.769531-17.355469-17.355468 0-9.585938 7.769531-17.355469 17.355469-17.355469 9.585937 0 17.355468 7.769531 17.355468 17.355469zm0 0" fill="#805333"/><path d="m478.320312 382.644531h-69.421874c-4.792969 0-8.679688-3.882812-8.679688-8.675781s3.886719-8.679688 8.679688-8.679688h69.421874c4.792969 0 8.679688 3.886719 8.679688 8.679688s-3.886719 8.675781-8.679688 8.675781zm0 0" fill="#805333"/><path d="m486.390625 496.457031-16.0625-13.292969c-9.628906-7.96875-23.5625-7.96875-33.195313 0l-8.746093 7.238282c-9.628907 7.964844-23.5625 7.964844-33.191407 0l-8.75-7.238282c-9.628906-7.972656-23.570312-7.972656-33.199218 0l-8.75 7.238282c-9.628906 7.964844-23.5625 7.964844-33.191406 0l-8.746094-7.238282c-9.632813-7.96875-23.566406-7.96875-33.195313 0l-8.746093 7.238282c-9.632813 7.972656-23.570313 7.972656-33.203126 0l-8.746093-7.238282c-9.632813-7.96875-23.566407-7.96875-33.195313 0l-8.746094 7.238282c-9.628906 7.964844-23.5625 7.964844-33.195312 0l-8.746094-7.238282c-9.632812-7.972656-23.570312-7.972656-33.203125 0l-8.746093 7.238282c-9.628907 7.964844-23.5625 7.964844-33.191407 0l-8.75-7.238282c-9.628906-7.96875-23.5625-7.96875-33.191406 0l-16.0625 13.292969c-1.40625 1.167969-1.933594 3.089844-1.316406 4.808594.617187 1.71875 2.246093 2.867187 4.074219 2.871094h479.234374c1.824219-.003907 3.453126-1.152344 4.074219-2.871094.617188-1.71875.089844-3.640625-1.316406-4.808594zm0 0" fill="#67b9cc"/><path d="m475.074219 70.828125c6.914062-17.898437 3.421875-38.152344-9.085938-52.703125-12.511719-14.550781-32.011719-21.042969-50.746093-16.890625-18.734376 4.148437-33.667969 18.269531-38.863282 36.742187-9.664062-4.511718-21.109375-2.644531-28.839844 4.703126-7.730468 7.351562-10.171874 18.683593-6.15625 28.566406-12.597656 3.375-20.738281 15.570312-19.027343 28.5 1.714843 12.929687 12.753906 22.585937 25.796875 22.5625h121.488281c13.292969-.042969 24.417969-10.085938 25.8125-23.304688 1.394531-13.214844-7.390625-25.359375-20.378906-28.175781zm0 0" fill="#bdc3c7"/></svg>