<?xml version="1.0" encoding="iso-8859-1"?>
<!-- Generator: Adobe Illustrator 19.0.0, SVG Export Plug-In . SVG Version: 6.00 Build 0)  -->
<svg version="1.1" id="Capa_1" xmlns="http://www.w3.org/2000/svg" xmlns:xlink="http://www.w3.org/1999/xlink" x="0px" y="0px"
	 viewBox="0 0 512 512" style="enable-background:new 0 0 512 512;" xml:space="preserve">
<polygon style="fill:#444444;" points="292.7,0 332,78.6 377,108.126 422,78.6 461.3,0 "/>
<rect x="332" y="78.6" style="fill:#292929;" width="90" height="132.4"/>
<path style="fill:#FF193D;" d="M485.296,361H212V181h237.29L485.296,361z"/>
<g>
	<rect x="302" y="241" style="fill:#292929;" width="30" height="60"/>
	<rect x="362" y="241" style="fill:#292929;" width="30" height="60"/>
</g>
<polygon style="fill:#FF4949;" points="242,90 242,271 160,301 73.001,301 30,271 30,90 "/>
<polygon style="fill:#FF193D;" points="160,301 136,301 136,90 242,90 242,271 "/>
<path style="fill:#5A5A5A;" d="M227,30H46C21.099,30,0,50.099,0,75s21.099,45,46,45h181c24.901,0,45-20.099,45-45S251.901,30,227,30
	z"/>
<path style="fill:#444444;" d="M272,75c0,24.901-20.099,45-45,45h-91V30h91C251.901,30,272,50.099,272,75z"/>
<path style="fill:#FF6C6C;" d="M30,271v90h212v-90H30z"/>
<rect x="136" y="271" style="fill:#FF4949;" width="106" height="90"/>
<path style="fill:#444444;" d="M467,331H46c-24.901,0-46,20.099-46,45v76h512v-76C512,351.099,491.901,331,467,331z"/>
<path style="fill:#292929;" d="M512,376v76H136V331h331C491.901,331,512,351.099,512,376z"/>
<path style="fill:#EDE9E8;" d="M91,151v90h90v-90H91z"/>
<rect x="136" y="151" style="fill:#D3D3D8;" width="45" height="90"/>
<path style="fill:#444444;" d="M257,512c-33.091,0-60-26.909-60-60s26.909-60,60-60s60,26.909,60,60S290.091,512,257,512z"/>
<path style="fill:#D3D3D8;" d="M257,482c-16.538,0-30-13.462-30-30s13.462-30,30-30s30,13.462,30,30S273.538,482,257,482z"/>
<path style="fill:#5A5A5A;" d="M136,400.101C127.301,395,116.8,392,106,392c-32.999,0-60,27.001-60,60s27.001,60,60,60
	c10.8,0,21.301-2.999,30-8.101c17.999-10.499,30-29.7,30-51.899S153.999,410.6,136,400.101z"/>
<path style="fill:#E7E7E7;" d="M106,482c-16.538,0-30-13.462-30-30s13.462-30,30-30s30,13.462,30,30S122.538,482,106,482z"/>
<path style="fill:#444444;" d="M407,512c-33.091,0-60-26.909-60-60s26.909-60,60-60s60,26.909,60,60S440.091,512,407,512z"/>
<path style="fill:#D3D3D8;" d="M407,482c-16.538,0-30-13.462-30-30s13.462-30,30-30s30,13.462,30,30S423.538,482,407,482z"/>
<path style="fill:#444444;" d="M166,452c0,22.2-12.001,41.4-30,51.899V400.101C153.999,410.6,166,429.8,166,452z"/>
<g>
</g>
<g>
</g>
<g>
</g>
<g>
</g>
<g>
</g>
<g>
</g>
<g>
</g>
<g>
</g>
<g>
</g>
<g>
</g>
<g>
</g>
<g>
</g>
<g>
</g>
<g>
</g>
<g>
</g>
</svg>
