<?xml version="1.0" encoding="iso-8859-1"?>
<!-- Generator: Adobe Illustrator 19.0.0, SVG Export Plug-In . SVG Version: 6.00 Build 0)  -->
<svg version="1.1" id="Capa_1" xmlns="http://www.w3.org/2000/svg" xmlns:xlink="http://www.w3.org/1999/xlink" x="0px" y="0px"
	 viewBox="0 0 504 504" style="enable-background:new 0 0 504 504;" xml:space="preserve">
<path style="fill:#E65039;" d="M284,416h-96c-57.44,0-104-46.56-104-104V208h304v104C388,369.44,341.44,416,284,416z"/>
<rect x="84" y="208" style="fill:#EB7361;" width="304" height="24"/>
<path style="fill:#AD3C2B;" d="M422.88,456H81.12c-7.624,0-14.192-5.384-15.688-12.864L60,416h384l-5.424,27.136
	C437.08,450.616,430.512,456,422.88,456z"/>
<path style="fill:#E65039;" d="M388,232h24c30.928,0,56,25.072,56,56s-25.072,56-56,56h-32"/>
<path style="fill:#F8F7F6;" d="M388,264h24c13.256,0,24,10.744,24,24s-10.744,24-24,24h-24"/>
<g>
	<rect x="4" y="456" style="fill:#BD8931;" width="496" height="48"/>
	<path style="fill:#BD8931;" d="M140,160L140,160V32c0-17.672,14.328-32,32-32l0,0v128C172,145.672,157.672,160,140,160z"/>
	<path style="fill:#BD8931;" d="M300,160L300,160V32c0-17.672,14.328-32,32-32l0,0v128C332,145.672,317.672,160,300,160z"/>
	<path style="fill:#BD8931;" d="M220,112L220,112V32c0-17.672,14.328-32,32-32l0,0v80C252,97.672,237.672,112,220,112z"/>
</g>
<g>
	<rect x="332" y="248" style="fill:#AD3C2B;" width="16" height="16"/>
	<rect x="332" y="280" style="fill:#AD3C2B;" width="16" height="48"/>
</g>
<g>
</g>
<g>
</g>
<g>
</g>
<g>
</g>
<g>
</g>
<g>
</g>
<g>
</g>
<g>
</g>
<g>
</g>
<g>
</g>
<g>
</g>
<g>
</g>
<g>
</g>
<g>
</g>
<g>
</g>
</svg>
